# xmcd
#
# Track frame offsets:
#	150
#	13957
#	27015
#	38860
#	51675
#	65220
#	76575
#	90877
#	99455
#	115237
#	132310
#	146027
#
# Disc length: 2147 seconds
#
# Revision: 1
# Processed by: cddbd v1.4PL0 Copyright (c) Steve Scherf et al.
# Submitted via: audiograbber 1.82.01
#
DISCID=a108610c
DTITLE=Los Tigres del Norte - vivan los mojados
DYEAR=1984
DGENRE=Country
TTITLE0=vivan los mojados
TTITLE1=la basurita
TTITLE2=mucho he sufrido
TTITLE3=pobreza fatal
TTITLE4=deja de llorar chiquilla
TTITLE5=a quien van a engañar
TTITLE6=margarita la de tijuana
TTITLE7=quiero que me quieras
TTITLE8=rosita de olvio
TTITLE9=el hijo de camelia
TTITLE10=cancion de un preso
TTITLE11=tres suspiros
EXTD=
EXTT0=
EXTT1=
EXTT2=
EXTT3=
EXTT4=
EXTT5=
EXTT6=
EXTT7=
EXTT8=
EXTT9=
EXTT10=
EXTT11=
PLAYORDER=
